<svg id="icon-logo-google" viewBox="0 0 24 24">
	<path fill="#4285f4" fill-rule="evenodd" d="M21.6 12.23a11.41 11.41 0 00-.18-2.05H12v3.87h5.38a4.59 4.59 0 01-2 3v2.51h3.23a9.76 9.76 0 003-7.35z">
	</path>
	<path fill="#34a853" fill-rule="evenodd" d="M12 22a9.59 9.59 0 006.62-2.42l-3.23-2.51a6 6 0 01-9-3.17H3.06v2.59A10 10 0 0012 22z">
	</path>
	<path fill="#fbbc05" fill-rule="evenodd" d="M6.4 13.9a6 6 0 010-3.8V7.51H3.06a10 10 0 000 9L6.4 13.9z">
	</path>
	<path fill="#ea4335" fill-rule="evenodd" d="M12 6a5.38 5.38 0 013.82 1.49l2.87-2.89A9.61 9.61 0 0012 2a10 10 0 00-8.94 5.51L6.4 10.1A6 6 0 0112 6z">
	</path>
</svg>
